<svg width="158" height="31" viewBox="0 0 158 31" fill="none" xmlns="http://www.w3.org/2000/svg">
<path d="M41.5879 25.5788V4.62109H46.9365L52.1759 12.6986L57.4154 4.62109H62.6548V25.5788H57.4154V12.8077L53.7041 18.3746H50.7569L46.9365 12.8077V25.5788H41.5879Z" fill="#E30512"/>
<path d="M73.3518 16.8464H77.718L75.5349 11.2795L73.3518 16.8464ZM64.292 25.5788L73.0244 4.62109H78.1547L86.8871 25.5788H81.211L79.4645 21.2126H71.8237L70.0772 25.5788H64.292Z" fill="#E30512"/>
<mask id="mask0_7583_9150" style="mask-type:luminance" maskUnits="userSpaceOnUse" x="0" y="-1" width="158" height="32">
<path d="M157.183 -0.400391H0V30.5996H157.183V-0.400391Z" fill="white"/>
</mask>
<g mask="url(#mask0_7583_9150)">
<path d="M89.8342 22.9592C87.6511 20.8853 86.5596 18.2656 86.5596 15.1001C86.5596 11.9346 87.6511 9.31485 89.8342 7.24091C92.0173 5.16696 94.7462 4.18457 98.0208 4.18457C100.204 4.18457 102.169 4.73035 104.024 5.71274V10.7339C102.169 9.64232 100.204 9.2057 98.3483 9.2057C96.4927 9.2057 94.9645 9.75147 93.7638 10.843C92.5631 11.9346 92.0173 13.3536 92.0173 15.2092C92.0173 17.0649 92.5631 18.4839 93.6546 19.5754C94.7462 20.667 96.1652 21.2127 97.8025 21.2127C99.2215 21.2127 100.313 20.8853 101.077 20.2303V13.3536H106.426V22.6318C105.553 23.505 104.461 24.3782 102.824 25.0332C101.295 25.6881 99.549 26.0156 97.8025 26.0156C94.637 25.9064 92.0173 24.924 89.8342 22.9592Z" fill="#E30512"/>
</g>
<path d="M109.592 25.5788V4.62109H114.176L123.236 16.1915V4.62109H128.476V25.5788H124L114.831 14.0084V25.5788H109.592Z" fill="#E30512"/>
<path d="M137.535 4.62109H132.187V25.4697H137.535V4.62109Z" fill="#E30512"/>
<path d="M139.391 4.62109V9.42391H145.612V25.5788H150.961V9.42391H157.183V4.62109H139.391Z" fill="#E30512"/>
<mask id="mask1_7583_9150" style="mask-type:luminance" maskUnits="userSpaceOnUse" x="0" y="-1" width="158" height="32">
<path d="M157.183 -0.400391H0V30.5996H157.183V-0.400391Z" fill="white"/>
</mask>
<g mask="url(#mask1_7583_9150)">
<path d="M0 8.98693C0 6.47637 0.982394 4.07496 2.72887 2.32848C4.3662 0.582004 6.65845 -0.400391 9.16901 -0.400391H30.2359V4.40243H9.16901C7.96831 4.40243 6.87676 4.83905 6.00352 5.71229C5.13028 6.58552 4.69366 7.78623 4.69366 8.98693V16.9552C4.47535 19.1383 2.94718 20.7757 0.87324 21.1031L0 21.3214V8.98693Z" fill="#E30512"/>
</g>
<mask id="mask2_7583_9150" style="mask-type:luminance" maskUnits="userSpaceOnUse" x="0" y="-1" width="158" height="32">
<path d="M157.183 -0.400391H0V30.5996H157.183V-0.400391Z" fill="white"/>
</mask>
<g mask="url(#mask2_7583_9150)">
<path d="M0 30.5998V25.7969H21.0669C22.2676 25.7969 23.3592 25.3603 24.2324 24.4871C25.1056 23.6138 25.5423 22.4131 25.5423 21.2124V13.5716C25.5423 11.2793 27.1796 9.31455 29.3627 8.98709L30.2359 8.87793V21.2124C30.2359 23.723 29.2535 26.1244 27.507 27.8709C25.7606 29.6174 23.4683 30.5998 21.0669 30.5998H0Z" fill="#E30512"/>
</g>
<path d="M17.7923 21.3213V15.0994L15.0634 18.4832L12.3345 15.0994V21.3213H8.73242V9.20508H12.1162L15.0634 13.1347L18.0106 9.20508H21.5035V21.3213H17.7923Z" fill="#E30512"/>
</svg>
